<svg xmlns="http://www.w3.org/2000/svg" version="1.1" xmlns:xlink="http://www.w3.org/1999/xlink" xmlns:svgjs="http://svgjs.dev/svgjs" width="1500" height="1500" viewBox="0 0 1500 1500"><rect width="1500" height="1500" fill="#ffffff"></rect><g transform="matrix(0.6666666666666666,0,0,0.6666666666666666,249.39393939393938,614.0398939679966)"><svg viewBox="0 0 396 108" data-background-color="#052560" preserveAspectRatio="xMidYMid meet" height="409" width="1500" xmlns="http://www.w3.org/2000/svg" xmlns:xlink="http://www.w3.org/1999/xlink"><g id="tight-bounds" transform="matrix(1,0,0,1,0.2400000000000091,-0.1478308626294904)"><svg viewBox="0 0 395.52 108.29560839513276" height="108.29560839513276" width="395.52"><g><svg viewBox="0 0 587.6099495235604 160.89092076933463" height="108.29560839513276" width="395.52"><g transform="matrix(1,0,0,1,192.08994952356045,47.40628152465421)"><svg viewBox="0 0 395.52 66.0783577200262" height="66.0783577200262" width="395.52"><g id="textblocktransform"><svg viewBox="0 0 395.52 66.0783577200262" height="66.0783577200262" width="395.52" id="textblock"><g><svg viewBox="0 0 395.52 66.0783577200262" height="66.0783577200262" width="395.52"><g transform="matrix(1,0,0,1,0,0)"><svg width="395.52" viewBox="1.17 -36.74 223.57000000000002 37.35" height="66.0783577200262" data-palette-color="#cef4eb"><g class="wordmark-text-0" data-fill-palette-color="primary" id="text-0"><path d="M13.09 0L8.33 0 1.17-33.84 5.35-33.84 8.91-15.19Q9.4-12.45 9.92-9.74 10.45-7.03 10.91-4.27L10.91-4.27 11.11-4.27Q11.69-7.03 12.32-9.74 12.94-12.45 13.55-15.19L13.55-15.19 18.43-33.84 22.09-33.84 26.78-15.19Q27.44-12.48 28.08-9.75 28.71-7.03 29.32-4.27L29.32-4.27 29.52-4.27Q30.03-7.03 30.51-9.75 30.98-12.48 31.47-15.19L31.47-15.19 35.23-33.84 39.11-33.84 31.88 0 27.1 0 21.9-20.75Q21.46-22.78 21.04-24.65 20.63-26.51 20.24-28.49L20.24-28.49 20.04-28.49Q19.65-26.51 19.2-24.65 18.75-22.78 18.33-20.75L18.33-20.75 13.09 0ZM54.29 0.61L54.29 0.61Q51.27 0.61 48.64-0.93 46.02-2.47 44.42-5.38 42.82-8.3 42.82-12.45L42.82-12.45Q42.82-16.63 44.42-19.57 46.02-22.51 48.64-24.06 51.27-25.61 54.29-25.61L54.29-25.61Q57.37-25.61 60.01-24.06 62.64-22.51 64.24-19.57 65.84-16.63 65.84-12.45L65.84-12.45Q65.84-8.3 64.24-5.38 62.64-2.47 60.01-0.93 57.37 0.61 54.29 0.61ZM54.29-2.66L54.29-2.66Q57.64-2.66 59.71-5.36 61.79-8.06 61.79-12.45L61.79-12.45Q61.79-16.87 59.71-19.59 57.64-22.31 54.29-22.31L54.29-22.31Q52.12-22.31 50.44-21.07 48.75-19.82 47.81-17.61 46.87-15.41 46.87-12.45L46.87-12.45Q46.87-8.06 48.95-5.36 51.02-2.66 54.29-2.66ZM76.51 0L72.55 0 72.55-24.98 75.85-24.98 76.22-20.46 76.31-20.46Q77.63-22.8 79.46-24.21 81.29-25.61 83.42-25.61L83.42-25.61Q85.03-25.61 86.05-25.1L86.05-25.1 85.18-21.73Q84.64-21.9 84.16-21.97 83.69-22.05 82.91-22.05L82.91-22.05Q81.32-22.05 79.56-20.74 77.8-19.43 76.51-16.16L76.51-16.16 76.51 0ZM94.13 0L90.23 0 90.23-36.74 94.13-36.74 94.13-11.57 94.28-11.57 105.17-24.98 109.59-24.98 101.24-14.94 110.73 0 106.41 0 98.99-12.21 94.13-6.64 94.13 0ZM124.28 0L119.52 0 112.37-33.84 116.54-33.84 120.11-15.19Q120.6-12.45 121.12-9.74 121.65-7.03 122.11-4.27L122.11-4.27 122.3-4.27Q122.89-7.03 123.51-9.74 124.14-12.45 124.75-15.19L124.75-15.19 129.63-33.84 133.29-33.84 137.98-15.19Q138.64-12.48 139.27-9.75 139.91-7.03 140.52-4.27L140.52-4.27 140.71-4.27Q141.23-7.03 141.7-9.75 142.18-12.48 142.67-15.19L142.67-15.19 146.43-33.84 150.31-33.84 143.08 0 138.3 0 133.1-20.75Q132.66-22.78 132.24-24.65 131.83-26.51 131.44-28.49L131.44-28.49 131.24-28.49Q130.85-26.51 130.4-24.65 129.95-22.78 129.53-20.75L129.53-20.75 124.28 0ZM161.63 0.61L161.63 0.61Q158.51 0.61 156.41-1.21 154.31-3.03 154.31-6.42L154.31-6.42Q154.31-10.52 158.03-12.72 161.76-14.92 169.79-15.82L169.79-15.82Q169.79-17.48 169.34-18.97 168.88-20.46 167.75-21.41 166.61-22.36 164.51-22.36L164.51-22.36Q162.29-22.36 160.35-21.51 158.41-20.65 156.95-19.73L156.95-19.73 155.41-22.36Q157.07-23.51 159.59-24.56 162.12-25.61 165.15-25.61L165.15-25.61Q169.71-25.61 171.73-22.8 173.74-20 173.74-15.41L173.74-15.41 173.74 0 170.45 0 170.13-3.03 169.98-3.03Q168.18-1.54 166.06-0.46 163.95 0.61 161.63 0.61ZM162.71-2.56L162.71-2.56Q164.59-2.56 166.24-3.44 167.88-4.32 169.79-5.96L169.79-5.96 169.79-13.18Q165.47-12.65 162.93-11.77 160.39-10.89 159.29-9.64 158.19-8.4 158.19-6.74L158.19-6.74Q158.19-4.52 159.51-3.54 160.83-2.56 162.71-2.56ZM191.71 0L187.12 0 178.06-24.98 182.14-24.98 187.02-10.6Q187.58-8.74 188.17-6.88 188.75-5.03 189.34-3.22L189.34-3.22 189.56-3.22Q190.12-5.03 190.73-6.88 191.34-8.74 191.88-10.6L191.88-10.6 196.76-24.98 200.62-24.98 191.71 0ZM215.56 0.61L215.56 0.61Q212.26 0.61 209.57-0.95 206.87-2.51 205.27-5.44 203.67-8.37 203.67-12.45L203.67-12.45Q203.67-16.53 205.27-19.48 206.87-22.44 209.43-24.02 211.99-25.61 214.85-25.61L214.85-25.61Q219.56-25.61 222.15-22.46 224.74-19.31 224.74-13.89L224.74-13.89Q224.74-12.52 224.59-11.57L224.59-11.57 207.58-11.57Q207.77-7.5 210.07-5 212.36-2.51 216.02-2.51L216.02-2.51Q217.9-2.51 219.46-3.02 221.03-3.52 222.37-4.42L222.37-4.42 223.76-1.95Q222.13-0.83 220.15-0.11 218.17 0.61 215.56 0.61ZM207.53-14.43L207.53-14.43 221.25-14.43Q221.25-18.36 219.59-20.41 217.93-22.46 214.9-22.46L214.9-22.46Q212.19-22.46 210.05-20.36 207.92-18.26 207.53-14.43Z" fill="#000000" data-fill-palette-color="primary"></path></g></svg></g></svg></g></svg></g></svg></g><g><svg viewBox="0 0 160.89092076933463 160.89092076933463" height="160.89092076933463" width="160.89092076933463"><g><svg></svg></g><g id="icon-0"><svg viewBox="0 0 160.89092076933463 160.89092076933463" height="160.89092076933463" width="160.89092076933463"><g><path d="M0 80.445c0-44.429 36.017-80.445 80.445-80.445 44.429 0 80.445 36.017 80.446 80.445 0 44.429-36.017 80.445-80.446 80.446-44.429 0-80.445-36.017-80.445-80.446zM80.445 154.932c41.138 0 74.486-33.349 74.487-74.487 0-41.138-33.349-74.486-74.487-74.486-41.138 0-74.486 33.349-74.486 74.486 0 41.138 33.349 74.486 74.486 74.487z" data-fill-palette-color="accent" fill="#000000" stroke="transparent"></path></g><g transform="matrix(1,0,0,1,33.89182052522308,57.111099717186846)"><svg viewBox="0 0 93.10727971888846 46.66872133496094" height="46.66872133496094" width="93.10727971888846"><g><svg xmlns="http://www.w3.org/2000/svg" xmlns:xlink="http://www.w3.org/1999/xlink" xml:space="preserve" style="shape-rendering:geometricPrecision;text-rendering:geometricPrecision;image-rendering:optimizeQuality;" viewBox="0.0000020000000000575113 0.0000027841116459863258 14.727499 7.381952827609914" x="0" y="0" fill-rule="evenodd" clip-rule="evenodd" width="93.10727971888846" height="46.66872133496094" class="icon-cg-0" data-fill-palette-color="accent" id="cg-0"><g fill="#cef4eb" data-fill-palette-color="accent"><path class="" d="M1.757 3.091c-0.313 0.444-0.296 1.331-0.417 1.95-0.153 0.784-0.711 1.203-1.34 1.534 0.188-0.771 0.348-1.542 0.412-2.313 0.078-0.953-0.06-0.891 0.767-1.575 1.159-0.961 3.04-1.741 5.848-2.29 2.456-0.406 5.049-0.453 7.701-0.351-0.89 1.809-3.733 1.961-7.203 1.581-1.811 0.02-3.495-0.488-5.768 1.464z m8.33 2.781c-3.895 2.038-7.803-2.284-9.165 0.688 2.104-1.831 5.079 3.183 9.165-0.688z m2.489-2.547c-4.49 2.72-9.502-0.792-10.907 1.859 3.412-1.235 7.765 2.753 10.907-1.859z m0.834-1.478c-3.944 1.761-10.043-1.402-11.565 2.239 3.106-1.808 8.446 1.438 11.565-2.239z" fill="#000000" data-fill-palette-color="accent"></path></g></svg></g></svg></g></svg></g></svg></g></svg></g><defs></defs></svg><rect width="395.52" height="108.29560839513276" fill="none" stroke="none" visibility="hidden"></rect></g></svg></g></svg>