<svg xmlns="http://www.w3.org/2000/svg" version="1.1" xmlns:xlink="http://www.w3.org/1999/xlink" xmlns:svgjs="http://svgjs.dev/svgjs" width="1440" height="750" preserveAspectRatio="none" viewBox="0 0 1440 750"><g mask="url(&quot;#SvgjsMask1289&quot;)" fill="none"><rect width="1440" height="750" x="0" y="0" fill="rgba(131, 187, 246, 1)"></rect><path d="M0,605.602C113.2,620.386,227.351,563.344,315.137,490.363C397.875,421.578,420.7,310.268,470.174,214.721C522.716,113.249,612.878,25.855,614.818,-88.397C616.867,-209.012,574.206,-340.243,480.899,-416.701C389.822,-491.332,256.114,-456.859,140.161,-477.345C39.644,-495.104,-54.402,-544.154,-155.361,-529.11C-264.923,-512.784,-374.938,-471.414,-449.487,-389.482C-524.768,-306.746,-544.695,-191.295,-563.126,-80.965C-581.928,31.591,-615.693,156.502,-557.045,254.394C-499.021,351.245,-361.839,354.21,-266.334,414.424C-171.981,473.912,-110.602,591.158,0,605.602" fill="#3691f0"></path><path d="M1440 1335.1280000000002C1548.268 1328.435 1642.125 1264.313 1727.63 1197.561 1807.166 1135.469 1861.4940000000001 1052.795 1912.882 965.958 1970.042 869.366 2044.1970000000001 775.415 2043.8600000000001 663.178 2043.505 544.886 1994.46 425.709 1911.008 341.87 1829.728 260.214 1710.708 234.46699999999998 1597.24 214.49 1493.437 196.21500000000003 1388.984 202.14999999999998 1287.953 232.17700000000002 1187.1779999999999 262.128 1081.963 301.135 1019.9839999999999 386.054 959.621 468.759 969.899 579.091 960.348 681.0360000000001 951.283 777.803 937.331 873.663 965.591 966.655 996.615 1068.7440000000001 1044.3029999999999 1169.144 1128.57 1234.594 1216.502 1302.891 1328.872 1341.998 1440 1335.1280000000002" fill="#d0e5fc"></path></g><defs><mask id="SvgjsMask1289"><rect width="1440" height="750" fill="#ffffff"></rect></mask></defs></svg>